# xmcd
#
# Track frame offsets: 
#        150
#        13395
#        51343
#        59495
#        71805
#        79735
#        107016
#        115154
#        124622
#        127690
#        142074
#        154703
#        170873
#        178916
#        183071
#        197426
#        208255
#        218459
#        227244
#        231516
#        248031
#        255820
#        267722
#        272234
#        283380
#        295451
#        307764
#        319976
#
# Disc length: 4426 seconds
#
# Revision: 1
# Processed by: cddbd v1.5.2PL0 Copyright (c) Steve Scherf et al.
# Submitted via: ExactAudioCopy v1.0b3
#
DISCID=b411481c
DTITLE=Hafez Modirzadeh - Post-Chromodal Out!
DYEAR=2012
DGENRE=Jazz
TTITLE0=Weft Facets: Facet Thirteen
TTITLE1=Weft Facets: Facet Fourteen
TTITLE2=Weft Facets: Facet Fifteen 
TTITLE3=Weft Facets: Interlude I
TTITLE4=Weft Facets: Facet Sixteen
TTITLE5=Weft Facets: Facet Seventeen
TTITLE6=Weft Facets: Facet Eighteen
TTITLE7=Weft Facets: Interlude II
TTITLE8=Weft Facets: Facet Nineteen
TTITLE9=Weft Facets: Facet Twenty
TTITLE10=Weft Facets: Facet Twenty-one
TTITLE11=Weft Facets: Facet Twenty-two
TTITLE12=Weft Facets: Interlude III
TTITLE13=Weft Facets: Facet Twenty-three
TTITLE14=Weft Facets: Facet Twenty-four
TTITLE15=Weft Facets: Interlude IV
TTITLE16=Weft Facets: Facet Twenty-five - Reprise
TTITLE17=Wolf and Warp: Wolf One
TTITLE18=Wolf and Warp: Wolf Two-piano solo
TTITLE19=Wolf and Warp: Wolf Two-ensemble
TTITLE20=Wolf and Warp: Wolf Two-bass solo
TTITLE21=Wolf and Warp: Wolf Three-ensemble
TTITLE22=Wolf and Warp: Wolf Three-drum solo
TTITLE23=Wolf and Warp: Wolf Four
TTITLE24=Wolf and Warp: Wolf Five-part one
TTITLE25=Wolf and Warp: Wolf Five-part two
TTITLE26=Wolf and Warp: Wolf Six
TTITLE27=Wolf and Warp: Wolf Seven
EXTD=YEAR: 2012
EXTT0=
EXTT1=
EXTT2=
EXTT3=
EXTT4=
EXTT5=
EXTT6=
EXTT7=
EXTT8=
EXTT9=
EXTT10=
EXTT11=
EXTT12=
EXTT13=
EXTT14=
EXTT15=
EXTT16=
EXTT17=
EXTT18=
EXTT19=
EXTT20=
EXTT21=
EXTT22=
EXTT23=
EXTT24=
EXTT25=
EXTT26=
EXTT27=
PLAYORDER=
